<svg width="53" height="51" viewBox="0 0 53 51" fill="none" xmlns="http://www.w3.org/2000/svg">
<g id="Control point" clip-path="url(#clip0_22_38)">
<path id="Vector" d="M26.5 14.875C25.2854 14.875 24.2917 15.8313 24.2917 17V23.375H17.6667C16.4521 23.375 15.4584 24.3312 15.4584 25.5C15.4584 26.6688 16.4521 27.625 17.6667 27.625H24.2917V34C24.2917 35.1688 25.2854 36.125 26.5 36.125C27.7146 36.125 28.7084 35.1688 28.7084 34V27.625H35.3334C36.5479 27.625 37.5417 26.6688 37.5417 25.5C37.5417 24.3312 36.5479 23.375 35.3334 23.375H28.7084V17C28.7084 15.8313 27.7146 14.875 26.5 14.875ZM26.5 4.25C14.3321 4.25 4.41669 13.7912 4.41669 25.5C4.41669 37.2088 14.3321 46.75 26.5 46.75C38.6679 46.75 48.5834 37.2088 48.5834 25.5C48.5834 13.7912 38.6679 4.25 26.5 4.25ZM26.5 42.5C16.7613 42.5 8.83335 34.8713 8.83335 25.5C8.83335 16.1287 16.7613 8.5 26.5 8.5C36.2388 8.5 44.1667 16.1287 44.1667 25.5C44.1667 34.8713 36.2388 42.5 26.5 42.5Z" fill="#CC62D8"/>
</g>
<defs>
<clipPath id="clip0_22_38">
<rect width="53" height="51" fill="white"/>
</clipPath>
</defs>
</svg>
