<svg width="32" height="30" viewBox="0 0 32 30" fill="none" xmlns="http://www.w3.org/2000/svg">
<g id="Favorite border" clip-path="url(#clip0_26_44)">
<path id="Vector" d="M26.2133 4.98746C22.6933 2.73746 18.3466 3.78746 16 6.36246C13.6533 3.78746 9.30663 2.72496 5.78663 4.98746C3.91996 6.18746 2.74663 8.21246 2.66663 10.35C2.47996 15.2 7.06663 19.0875 14.0666 25.05L14.2 25.1625C15.2133 26.025 16.7733 26.025 17.7866 25.15L17.9333 25.025C24.9333 19.075 29.5066 15.1875 29.3333 10.3375C29.2533 8.21246 28.08 6.18746 26.2133 4.98746ZM16.1333 23.1875L16 23.3125L15.8666 23.1875C9.51996 17.8 5.33329 14.2375 5.33329 10.625C5.33329 8.12496 7.33329 6.24996 9.99996 6.24996C12.0533 6.24996 14.0533 7.48746 14.76 9.19996H17.2533C17.9466 7.48746 19.9466 6.24996 22 6.24996C24.6666 6.24996 26.6666 8.12496 26.6666 10.625C26.6666 14.2375 22.48 17.8 16.1333 23.1875Z" fill="#CC62D8"/>
</g>
<defs>
<clipPath id="clip0_26_44">
<rect width="32" height="30" fill="white"/>
</clipPath>
</defs>
</svg>
