<svg width="52" height="47" viewBox="0 0 52 47" fill="none" xmlns="http://www.w3.org/2000/svg">
<g id="Home" clip-path="url(#clip0_22_14)">
<path id="Vector" d="M21.7648 38.2113V28.4196H30.4315V38.2113C30.4315 39.2884 31.4065 40.1696 32.5982 40.1696H39.0982C40.2898 40.1696 41.2648 39.2884 41.2648 38.2113V24.503H44.9482C45.9448 24.503 46.4215 23.3867 45.6632 22.7992L27.5498 8.05296C26.7265 7.38713 25.4698 7.38713 24.6465 8.05296L6.53317 22.7992C5.79651 23.3867 6.25151 24.503 7.24817 24.503H10.9315V38.2113C10.9315 39.2884 11.9065 40.1696 13.0982 40.1696H19.5982C20.7898 40.1696 21.7648 39.2884 21.7648 38.2113Z" fill="#CC62D8"/>
</g>
<defs>
<clipPath id="clip0_22_14">
<rect width="52" height="47" fill="white"/>
</clipPath>
</defs>
</svg>
