<svg width="56" height="52" viewBox="0 0 56 52" fill="none" xmlns="http://www.w3.org/2000/svg">
<g id="Notifications none" clip-path="url(#clip0_26_62)">
<path id="Vector" d="M45.01 37.4617L42 34.6667V23.8334C42 17.1817 38.1733 11.6134 31.5 10.14V8.66669C31.5 6.86835 29.9367 5.41669 28 5.41669C26.0633 5.41669 24.5 6.86835 24.5 8.66669V10.14C17.8033 11.6134 14 17.16 14 23.8334V34.6667L10.99 37.4617C9.52 38.8267 10.5467 41.1667 12.6233 41.1667H43.3533C45.4533 41.1667 46.48 38.8267 45.01 37.4617ZM37.3333 36.8334H18.6667V23.8334C18.6667 18.46 22.19 14.0834 28 14.0834C33.81 14.0834 37.3333 18.46 37.3333 23.8334V36.8334ZM28 47.6667C30.5667 47.6667 32.6667 45.7167 32.6667 43.3334H23.3333C23.3333 45.7167 25.41 47.6667 28 47.6667Z" fill="#CC62D8"/>
</g>
<defs>
<clipPath id="clip0_26_62">
<rect width="56" height="52" fill="white"/>
</clipPath>
</defs>
</svg>
