<svg width="60" height="57" viewBox="0 0 60 57" fill="none" xmlns="http://www.w3.org/2000/svg">
<g id="Perm identity" clip-path="url(#clip0_25_17)">
<path id="Vector" d="M30 28.5C35.525 28.5 40 24.2487 40 19C40 13.7512 35.525 9.5 30 9.5C24.475 9.5 20 13.7512 20 19C20 24.2487 24.475 28.5 30 28.5ZM30 14.25C32.75 14.25 35 16.3875 35 19C35 21.6125 32.75 23.75 30 23.75C27.25 23.75 25 21.6125 25 19C25 16.3875 27.25 14.25 30 14.25ZM30 30.875C23.325 30.875 10 34.0575 10 40.375V45.125C10 46.4313 11.125 47.5 12.5 47.5H47.5C48.875 47.5 50 46.4313 50 45.125V40.375C50 34.0575 36.675 30.875 30 30.875ZM45 42.75H15V40.3988C15.5 38.6888 23.25 35.625 30 35.625C36.75 35.625 44.5 38.6887 45 40.375V42.75Z" fill="#CC62D8"/>
</g>
<defs>
<clipPath id="clip0_25_17">
<rect width="60" height="57" fill="white"/>
</clipPath>
</defs>
</svg>
